<svg width="60" height="36" viewBox="0 0 60 36" fill="none" xmlns="http://www.w3.org/2000/svg">
<g clip-path="url(#clip0_2_1555)">
<path d="M7.29338 0V36H0V0H7.29338Z" fill="#212121"/>
<path d="M45.7466 19.3274L45.7107 19.3661C45.7273 19.3688 45.7438 19.3688 45.7577 19.3688C45.7521 19.355 45.7494 19.3412 45.7466 19.3274Z" fill="#212121"/>
<path d="M49.7302 22.0348V36H42.3954V23.4852C42.3954 22.1039 42.0446 21.0403 41.3401 20.2944C40.6356 19.5484 39.7157 19.1755 38.583 19.1755C37.3122 19.1755 36.2845 19.5816 35.4971 20.3966C34.7098 21.2116 34.3147 22.3249 34.3147 23.7339V36H27.0213V23.4852C27.0213 22.1591 26.6622 21.1093 25.9439 20.3358C25.2256 19.5623 24.2725 19.1755 23.0846 19.1755C21.8966 19.1755 20.8744 19.5816 20.1009 20.3966C19.3274 21.2116 18.9406 22.3249 18.9406 23.7339V36H11.6472V13.1253H18.7748V16.3162C19.4102 15.1282 20.3855 14.1806 21.6977 13.4762C23.01 12.7717 24.3968 12.4346 25.861 12.4623C28.9275 12.4899 31.041 13.7607 32.2013 16.2747C33.0301 15.0592 34.1628 14.1199 35.5993 13.4568C36.7044 12.9457 37.8757 12.6336 39.1134 12.5175C39.141 15.9625 41.702 18.8136 45.0199 19.2998C45.2465 19.3357 45.4785 19.3578 45.7106 19.3661C45.7272 19.3689 45.7438 19.3689 45.7576 19.3689C45.8487 19.3716 45.9371 19.3744 46.0283 19.3744C46.2217 19.3744 46.4123 19.3661 46.6029 19.3495C47.5561 19.2722 48.4539 18.9987 49.2578 18.5705C49.5728 19.5982 49.7302 20.753 49.7302 22.0348Z" fill="#212121"/>
<path d="M12.6281 5.35121V4.99483C12.6281 4.50308 12.7607 4.11907 13.0314 3.83728C13.2994 3.55825 13.653 3.42012 14.095 3.42012C14.41 3.42012 14.7083 3.49471 14.9901 3.6439L14.8078 4.05C14.5592 3.9395 14.3326 3.88425 14.1282 3.88425C13.8077 3.88425 13.5618 3.98094 13.3878 4.17432C13.2137 4.36771 13.1253 4.64397 13.1253 5.00312V5.35121H14.7829V5.79047H13.1253V9.78525H12.6281V5.79047H11.849V5.35121H12.6281ZM15.3216 4.23234C15.3216 4.11078 15.3631 4.00857 15.446 3.92569C15.5288 3.84281 15.6311 3.80137 15.7526 3.80137C15.8742 3.80137 15.9736 3.84281 16.051 3.92569C16.1339 4.00857 16.1753 4.11078 16.1753 4.23234C16.1753 4.3539 16.1339 4.45611 16.051 4.53899C15.9736 4.61635 15.8742 4.65502 15.7526 4.65502C15.6311 4.65502 15.5288 4.61635 15.446 4.53899C15.3631 4.45611 15.3216 4.3539 15.3216 4.23234ZM16.0013 9.78525H15.504V5.35121H16.0013V9.78525Z" fill="#212121"/>
<path d="M19.3163 9.88466C18.6588 9.88466 18.1173 9.66917 17.6919 9.2382C17.2664 8.79617 17.0537 8.24088 17.0537 7.57232C17.0537 6.90376 17.2692 6.33466 17.7002 5.89816C18.1367 5.46166 18.692 5.24342 19.366 5.24342C19.8025 5.24342 20.1976 5.34563 20.554 5.55007C20.9104 5.7545 21.1756 6.03353 21.3469 6.38715L20.9408 6.61921C20.7916 6.33742 20.5761 6.11365 20.2943 5.94789C20.0125 5.78213 19.7031 5.69925 19.366 5.69925C18.8356 5.69925 18.4019 5.87606 18.0648 6.22968C17.7223 6.5833 17.551 7.03085 17.551 7.57232C17.551 8.1138 17.7167 8.55859 18.0483 8.90668C18.3798 9.25477 18.8025 9.42882 19.3163 9.42882C19.6478 9.42882 19.96 9.34318 20.2584 9.17189C20.554 9.00061 20.775 8.7796 20.9159 8.50886L21.322 8.7575C21.1507 9.09454 20.88 9.36804 20.5098 9.578C20.1506 9.78244 19.7528 9.88466 19.3163 9.88466Z" fill="#212121"/>
<path d="M24.8029 9.12216L25.0101 9.5034C24.6897 9.75757 24.2974 9.88465 23.8333 9.88465C23.3968 9.88465 23.0652 9.74928 22.8387 9.47854C22.6122 9.2078 22.4989 8.82656 22.4989 8.33481V5.79041H21.7115V5.35115H22.5072V3.78473H22.9962V5.35115H24.8195V5.79041H22.9962V8.35138C22.9962 9.06967 23.289 9.42881 23.8747 9.42881C24.2173 9.42881 24.5267 9.32659 24.8029 9.12216Z" fill="#212121"/>
<path d="M25.9384 4.65499C25.8169 4.65499 25.7146 4.61631 25.6318 4.5362C25.5489 4.45608 25.5074 4.35386 25.5074 4.23231C25.5074 4.11075 25.5489 4.0113 25.6318 3.93118C25.7146 3.85106 25.8169 3.81239 25.9384 3.81239C26.06 3.81239 26.1539 3.85106 26.2368 3.93118C26.3197 4.0113 26.3611 4.11351 26.3611 4.23231C26.3611 4.3511 26.3197 4.45608 26.2368 4.5362C26.1539 4.61631 26.0544 4.65499 25.9384 4.65499ZM26.1705 5.35118V9.78522H25.6732V5.35118H26.1705Z" fill="#212121"/>
<path d="M27.2562 7.56404C27.2562 6.90653 27.4745 6.35676 27.911 5.91474C28.353 5.46719 28.9028 5.24342 29.5603 5.24342C30.2178 5.24342 30.7675 5.46719 31.2096 5.91474C31.6461 6.35676 31.8643 6.90653 31.8643 7.56404C31.8643 8.22154 31.6461 8.7796 31.2096 9.22162C30.7675 9.66917 30.2178 9.89294 29.5603 9.89294C28.9028 9.89294 28.353 9.66917 27.911 9.22162C27.4745 8.7796 27.2562 8.22707 27.2562 7.56404ZM29.5603 9.43711C30.0796 9.43711 30.5106 9.25754 30.8532 8.89839C31.1958 8.5282 31.367 8.08341 31.367 7.56404C31.367 7.04466 31.1958 6.59711 30.8532 6.23797C30.5106 5.87882 30.0796 5.69925 29.5603 5.69925C29.0409 5.69925 28.6154 5.88159 28.2674 6.24626C27.9248 6.6054 27.7535 7.04466 27.7535 7.56404C27.7535 8.08341 27.9248 8.5282 28.2674 8.89839C28.6154 9.25754 29.0464 9.43711 29.5603 9.43711Z" fill="#212121"/>
<path d="M33.4058 9.78519H32.9086V5.35115H33.3893V6.13022C33.66 5.53349 34.1739 5.23512 34.9308 5.23512C35.4226 5.23512 35.8397 5.39812 36.1823 5.72411C36.5193 6.04457 36.6879 6.50594 36.6879 7.10819V9.78519H36.1906V7.19936C36.1906 6.73524 36.0746 6.37057 35.8397 6.10259C35.6049 5.83461 35.2817 5.69924 34.8728 5.69924C34.4639 5.69924 34.1379 5.83461 33.8451 6.10535C33.5523 6.37057 33.4058 6.76839 33.4058 7.29881V9.78519Z" fill="#212121"/>
<path d="M45.2963 12.3904C45.2107 12.3048 45.1637 12.1943 45.1637 12.0727C45.1637 11.9511 45.2107 11.8406 45.2963 11.755C45.3819 11.6694 45.498 11.6224 45.614 11.6224C45.73 11.6224 45.8461 11.6666 45.9317 11.755C46.1085 11.929 46.1085 12.2164 45.9317 12.3904C45.7632 12.5617 45.4676 12.5617 45.2963 12.3904Z" fill="#212121"/>
<path d="M48.0367 12.8766C47.4483 13.3629 46.9455 13.9458 46.5504 14.6033C46.5339 14.6337 46.5145 14.6613 46.5007 14.6917L44.5088 13.7524C44.5088 13.7524 44.4812 13.7331 44.4785 13.7165L43.4922 10.324L44.7078 11.5395C44.6111 11.6998 44.5613 11.8821 44.5613 12.0727C44.5613 12.3545 44.6718 12.617 44.8707 12.8159C45.0697 13.0148 45.3321 13.1253 45.6139 13.1253C45.8957 13.1253 46.1581 13.0148 46.3571 12.8159C46.5642 12.6114 46.6665 12.3435 46.6665 12.0727C46.6665 11.802 46.5642 11.534 46.3571 11.3296C46.0311 11.0008 45.5421 10.9345 45.1498 11.1307L43.9646 9.94548L47.1776 10.8654C47.1969 10.871 47.2107 10.8848 47.219 10.9014L48.0367 12.8766Z" fill="#212121"/>
<path d="M51.4569 11.4124C50.3822 11.5395 49.3877 11.9235 48.534 12.5064L47.7743 10.6693C47.697 10.4814 47.5395 10.3433 47.3433 10.2853L43.6027 9.21613C43.3983 9.15535 43.1773 9.19955 43.0115 9.33216C42.9949 9.34321 42.9784 9.35702 42.9646 9.37084C42.959 9.37636 42.9563 9.37913 42.9507 9.38465C42.7795 9.55594 42.7159 9.80457 42.7822 10.0366L43.8983 13.8822C43.9508 14.0646 44.0807 14.2165 44.2519 14.2966L46.2217 15.2249C45.8349 16.062 45.6167 16.9957 45.6139 17.9765C42.7601 17.7637 40.5003 15.3741 40.4948 12.4678V12.4595C40.4948 9.40952 42.9784 6.9259 46.0283 6.9259C48.7191 6.9259 50.9679 8.85975 51.4569 11.4124Z" fill="#212121"/>
<path d="M51.5536 12.2357C51.5536 12.2357 51.5564 12.244 51.5536 12.2495L48.0064 16.0758L46.4482 17.7582C46.4869 16.8189 46.7494 15.9349 47.1859 15.1613C48.0727 13.5811 49.6778 12.4567 51.5536 12.2357Z" fill="#212121"/>
<path d="M51.5674 12.2329L51.5536 12.2495C51.5536 12.2495 51.5536 12.2412 51.5536 12.2357C51.5591 12.2329 51.5619 12.2329 51.5674 12.2329Z" fill="#212121"/>
<path d="M51.5537 12.2357C51.5537 12.2357 51.5564 12.244 51.5537 12.2495L51.5675 12.2329C51.5675 12.2329 51.5592 12.2329 51.5537 12.2357ZM45.7466 19.3274L45.7107 19.3661C45.7273 19.3688 45.7438 19.3688 45.7577 19.3688C45.7521 19.355 45.7494 19.3412 45.7466 19.3274Z" fill="#212121"/>
<path d="M59.3885 29.2177H52.609V35.9972H59.3885V29.2177Z" fill="#F29220"/>
</g>
<defs>
<clipPath id="clip0_2_1555">
<rect width="59.3885" height="36" fill="white"/>
</clipPath>
</defs>
</svg>
