<?xml version="1.0" encoding="UTF-8"?>
<svg id="Layer_7" data-name="Layer 7" xmlns="http://www.w3.org/2000/svg" xmlns:xlink="http://www.w3.org/1999/xlink" viewBox="0 0 566.93 566.93">
  <defs>
    <style>
      .cls-1 {
        stroke: #212121;
      }

      .cls-1, .cls-2 {
        stroke-miterlimit: 10;
      }

      .cls-1, .cls-2, .cls-3 {
        fill: none;
      }

      .cls-4 {
        fill: #f9f0cd;
      }

      .cls-5 {
        fill: #fff;
      }

      .cls-2 {
        stroke: #fff;
      }

      .cls-6 {
        fill: #c49a6c;
      }

      .cls-7 {
        fill: #231f20;
      }

      .cls-8 {
        fill: #212121;
      }

      .cls-9 {
        fill: #feeb04;
      }

      .cls-10 {
        fill: url(#linear-gradient);
      }
    </style>
    <linearGradient id="linear-gradient" x1="161.11" y1="233.11" x2="270.83" y2="43.06" gradientUnits="userSpaceOnUse">
      <stop offset="0" stop-color="#fff"/>
      <stop offset=".51" stop-color="#000"/>
    </linearGradient>
  </defs>
  <path class="cls-8" d="M325.79,299.22s-8.01.56-18.9.85c-5.91.16-3.9,9.3-.17,9.99,3.13.58,5.83-.59,1.94,2.73-7.15,6.11,10.03,1.15,10.03,1.15,0,0,4.07,1.39,4.45-2.68.39-4.07,2.64-12.04,2.64-12.04Z"/>
  <path class="cls-6" d="M553.2,530.12c.29-2.77-23.11-33.96-23.11-33.96,0,0-24.58-43.78-44.39-56.29-16.2-10.23-19.71-37.82-19.71-37.82,0,0-11.54-26.39-42.03-40.46-30.49-14.07-62.65-39.39-62.65-39.39,0,0-21.82-17.76-29.34-23.5-1.27-.97-6.34-.54-6.34-.54,0,0-6.83,27.26-8.44,33.13-1.36,4.93,2.12,14.08-16.77,14.78l8.28,220.87h161.22s4.48-9.21,19.14-9.75c14.66-.54,35.37-23.96,47.95-29.08,16.21-6.59,11.81,9.34,11.81,9.34,0,0,4.1-4.56,4.4-7.33Z"/>
  <path class="cls-4" d="M269.3,340.34c-8.54-1.97-16.81-5.23-23.56-10.05-12.39-8.84-26.05-18.62-27.53-25.65-1.67-7.88,9.11-7.35,9.11-7.35l7.57-4.4s-5.7-2.01-17.7,2.77c-7.65,3.05-19.11,21.82-27.22,30.28-6.3,6.56-39.54,19.64-71.25,50.14-10.12,9.73-18.12,21-29.47,37.48-25.47,36.99-79.92,118.31-79.92,118.31,0,0,14.98-9.19,48.71-2.88,33.73,6.32,68.89,38.26,68.89,38.26h191.13l-15.6-101.53-33.16-125.39Z"/>
  <path class="cls-5" d="M309.52,372.45c.63-4.55,1.51-9.09,2.4-13.59,1.33-6.72,2.65-13.45,3.98-20.17-3.4,2.9-7.84,4.34-12.28,4.84s-8.92.11-13.37-.28c-8.82-.77-17.68-1.55-26.27-3.69-8.17-2.03-16.16-5.36-22.68-10.67,8.59,12.93,16.57,23.91,25.19,36.92,2.17,3.28,8.84,9.93,11.93,12.37,2.85,2.25,6.28,3.6,9.66,4.9,6.94,2.65,13.92,5.16,20.96,7.53-.72-6.04-.35-12.11.48-18.15Z"/>
  <path class="cls-5" d="M278.81,389.85c9.88,37.07,16.94,66.32,23.58,104.11,2.22,12.65,4.27,25.41,3.97,38.25-.27,11.58-2.44,23.21-.71,34.66,8.9.13,19.54.26,28.44.39-8.94-36.12-2.93-71.89-11.35-107.57-3.3-14-3.16-32.73-5.73-46.88-1.75-9.61-2.25-17.61-9.48-24.17-8.46-7.67-20.42-3.5-31.43-11.41,3.7,2.38.33,7.11,1.77,9.8"/>
  <path class="cls-5" d="M151.68,568.21c.6-3.62,1.69-7.12,3.19-10.46,1.25-2.42,2.71-4.8,3.18-7.53,1.08-8.18,1.7-16.18,4.26-24.14,0,0,.3.01.3.01,1.8,8.35-.27,16.74-3.57,24.4-1.04,2.6-1.22,5.38-1.81,8.11-.45,1.8-1.24,3.48-2.09,5.13-.9,1.62-1.88,3.21-3.18,4.61,0,0-.27-.13-.27-.13h0Z"/>
  <path class="cls-5" d="M126.69,384.36c25.35,38.45,43.29,84.03,43.66,130.52,0,0-.3.02-.3.02-3.29-22.9-7.76-45.5-14.62-67.59-3.52-10.99-7.72-21.76-12.58-32.24-4.82-10.5-10.3-20.71-16.42-30.54l.25-.16h0Z"/>
  <path class="cls-5" d="M133.49,366.34c3.52,4.86,6.26,10.29,8.17,15.97,1.25,4.32,2.08,8.75,3.69,12.95,5.01,12.49,8.44,25.89,7.53,39.45,0,0-.3.03-.3.03-3.43-12.99-5.39-26.1-8.21-39.18-1.89-7.21-6.12-13.49-8.33-20.6-1.04-2.8-2.05-5.59-2.82-8.5,0,0,.27-.13.27-.13h0Z"/>
  <path class="cls-5" d="M161.31,548.52c.64,3.9,1.98,7.64,3.89,11.07.95,1.7,2.26,3.12,3.2,4.78.98,1.66,1.99,3.29,2.91,5.23,0,0-.2.22-.2.22-6.25-2.3-8.59-9.21-9.76-15.17-.31-2.04-.47-4.08-.33-6.11,0,0,.3-.02.3-.02h0Z"/>
  <path class="cls-5" d="M162.78,528.97c6.35,5.54,9.46,13.8,12.97,21.19,3.76,7.24,7.54,14.25,14.32,19.11,0,0-.12.27-.12.27-13.46-3.42-16.01-19.1-20.93-29.96-1.63-3.75-3.66-7.35-6.45-10.4,0,0,.21-.21.21-.21h0Z"/>
  <path class="cls-5" d="M280.65,387.37c-9.92-11.14-21.79-21.25-36.02-26.16-15.34-5.21-32.09-3.6-44.4,7.44.25-15.78-.99-31.7-3.75-47.25,0,0,.29-.07.29-.07.84,2.54,1.65,5.44,2.34,8.05,1.13,4.51,2.06,9.13,2.72,13.72,1.08,7.4,1.64,14.89,1.49,22.37,0,0-2.5-1.23-2.5-1.23,12.59-9.67,30.04-10.05,44.41-4.73,14.41,5.36,25.98,16.06,35.64,27.67,0,0-.23.2-.23.2h0Z"/>
  <path class="cls-5" d="M360.58,323.62s5.21,13.22,5.21,13.22l.21.54c-6.83,1.39-13.42,3.81-19.53,7.06-8.88,4.65-16.69,11.45-23.03,19.16-6.45,7.81-11.67,16.35-15.34,25.91,0,0-.29-.08-.29-.08,1.15-6.78,3.72-13.34,7.23-19.32,2.57-4.35,5.97-8.72,9.53-12.35,0,0,3.81-3.54,3.81-3.54,10.39-9.08,23.18-15.59,36.83-17.72,0,0-.38.67-.38.67,0,0-4.54-13.47-4.54-13.47l.28-.1h0Z"/>
  <path class="cls-2" d="M521.38,499.91c-13.82,1.91-26.63,10.2-34.04,22.03"/>
  <path class="cls-5" d="M32.32,497.33c10.98-.14,20.82,5.68,31.43,7.37,5.04,1.02,10.64-.24,16.16,1.16,2.82.69,4.74,3.14,6.16,5.49,1.43,2.34,2.75,4.7,4.15,7.02,8.42,15.4,29.3,11.76,41.71,21.99,4.32,3.45,7.8,8.75,7.54,14.42,0,0-.3.01-.3.01-.74-5.28-4.36-9.63-8.65-12.54-8.99-6.02-20.46-6.09-30.12-11.23-3.74-1.93-7.31-4.59-9.65-8.17-2.19-3.54-3.48-7.43-5.54-10.98-3.9-8.48-12.44-4.44-19.65-4.58-.51.02-1.6-.05-2.11-.11-5.55-.51-10.73-2.61-15.83-4.59-5.03-2-9.99-3.92-15.32-4.96,0,0,.02-.3.02-.3h0Z"/>
  <path class="cls-5" d="M460.89,574.84c-3.3-2.9-5.68-6.88-7.03-11.04-.99-3-.94-6.26-1.14-9.33-.3-4.96-1.01-10.06.19-14.98.82-4.3,3.16-8.97.13-12.53-.6-.65-1.56-1.05-2.6-1.08-1.03-.02-2.14.32-2.85,1.3l-.28-.12c.73-2.94,4.86-3.67,7.22-1.93,5.06,3.78,2.83,10.41,1.12,15.08-2.41,7.63-3.29,13.55.14,21.07,1.58,4.59,3.32,8.9,5.34,13.38,0,0-.24.18-.24.18h0Z"/>
  <path class="cls-5" d="M447.8,392.4c-1.14,11.49-2.62,27.37-3.47,38.69-.6,6.44-1.19,12.91-1.28,19.38-.09,6.48.32,12.96,1,19.4,3.53,25.89.16,52.02-2.19,77.84,0,0-.3,0-.3,0-1.32-25.93,2.2-51.82.85-77.73-.07-11.48-.73-27.72-.58-39.04.2-6.51.86-13.01,1.79-19.46.93-6.45,2.2-12.85,3.88-19.14,0,0,.3.05.3.05h0Z"/>
  <path class="cls-5" d="M456.61,396.37c2.53,2.64,3.64,6.54,3.13,10.25-.29,3.74-3.27,6.72-5.31,9.5-4,5.89-2.86,13.24-2.8,20.06,0,0,0,.81,0,.81-1.81,1.32-3.37,2.93-4.65,4.84-1.16,1.72-2.05,3.65-2.7,5.75,0,0-.3-.03-.3-.03-.15-2.24.31-4.55,1.22-6.67.9-2.14,2.29-4.1,4.04-5.71l-.51,1.2c-.78-7.16-.42-15.34,4.11-21.4,1.16-1.51,2.49-2.71,3.54-4.05,3.26-4.04,3.24-10.18.01-14.34,0,0,.23-.2.23-.2h0Z"/>
  <path class="cls-5" d="M212.45,501.17c25.19,16.1,46.32,44.88,47.69,75.45,0,0-.3.04-.3.04-5.77-21.95-14.78-43.44-30.48-60.14-5.13-5.6-10.85-10.69-17.07-15.11,0,0,.17-.25.17-.25h0Z"/>
  <path class="cls-3" d="M265.89,419.08c7.67,14.86,11.51,31.68,11.04,48.39"/>
  <path class="cls-5" d="M281.64,490.56c2.23,15.02,3.08,30.25,2.55,45.44-.31,15.21-2.35,30.49-7.35,44.91,0,0-.29-.07-.29-.07,1.78-15.06,3.94-29.89,5.25-44.97.55-7.52.78-15.07.68-22.62-.05-7.55-.42-15.11-1.13-22.65,0,0,.3-.04.3-.04h0Z"/>
  <path class="cls-5" d="M267.85,399.43c3.28,4.01,5.76,8.69,7.35,13.62.99,3.75,1.53,7.61,2.82,11.27,4.05,10.89,6.18,22.83,3.59,34.34,0,0-.3,0-.3,0-1.79-11.42-2.46-22.72-4.28-34.07-1.34-6.27-5.14-11.61-6.99-17.72-.91-2.4-1.79-4.79-2.46-7.3,0,0,.26-.14.26-.14h0Z"/>
  <path class="cls-5" d="M281.89,471.15c1.12,1.21,1.68,2.65,1.52,4.22-.14.74-.58,1.5-.63,2.22-.07.73.12,1.44.42,2.16,1.22,2.84,1.1,6.15-.85,8.66,0,0-.3-.02-.3-.02-.82-1.4-1.15-2.81-1.26-4.33,0-1.45.24-2.86.77-4.26.26-.72.4-1.44.25-2.15-.13-.71-.65-1.39-.9-2.08-.25-.69-.19-1.41-.1-2.13.12-.79.33-1.52.78-2.24,0,0,.3-.04.3-.04h0Z"/>
  <path class="cls-5" d="M253.42,501.97c4.05,4.35,7.27,9.47,9.59,14.94,1.54,4.18,2.61,8.51,4.38,12.59,5.46,12.15,8.8,25.63,7.04,39.01,0,0-.3.01-.3.01-2.6-12.98-4.43-25.9-7.7-38.68-2.15-7.03-6.76-12.93-9.59-19.68-1.3-2.64-2.58-5.27-3.67-8.03,0,0,.25-.16.25-.16h0Z"/>
  <path class="cls-5" d="M56.09,567.26h69.98s-34.06-23.47-46.41-29.64c-8.05-4.02-15.01-5.93-15.01-5.93l-8.56,35.57Z"/>
  <path class="cls-5" d="M528.86,569.66l-58.49-2.52s.92-4.6,8.82-7.9c4.41-1.84,14.65-2.5,19.5-4.92,8.05-4.02,23.74-19.03,23.74-19.03-.34,15.42,1.3,27.67,6.43,34.38Z"/>
  <path class="cls-8" d="M515.31,543.75s20.05-21.87,29.23-16.84-2.85,16.93-5.86,17.96c-3.01,1.04-13.5,7.66-13.5,12.77s-.05,6.92-.05,6.92c0,0-8.28-8.44-8.66-12.51-.39-4.07-1.16-8.31-1.16-8.31Z"/>
  <path class="cls-8" d="M218.46,300.46s3.97-7.98,17.4-1.93c9.96,4.49,3.9,9.3.17,9.99-3.13.58-9.08-.26-5.2,3.06,7.15,6.11,9.5,15.57,9.5,15.57,0,0-23-16.04-23.39-20.11s1.53-6.57,1.53-6.57Z"/>
  <path class="cls-8" d="M308.15,300.27c3.89-.63,7.79-1.17,11.69-1.76,2.27-.21,6.78-1.19,9.05-.91,2.23.12,4.1,2,5.54,3.36,2.2,1.9,4.57,3.48,6.8,5.42,2.98,2.57,5.89,5.24,8.49,8.31l-.18.24c-7.08-3.59-13.7-8.16-18.91-14.13-1.31-1.23-2.98-1.23-4.76-1.14,0,0-5.89.35-5.89.35-3.94.19-7.87.41-11.81.56l-.03-.3h0Z"/>
  <path class="cls-8" d="M361.17,324.74c5.85,3.46,12.87,8.25,17.69,11.76,12.72,6.66,25.26,13.73,37.03,21.99-13.26-5.57-25.91-12.42-38.33-19.64-5.66-4.47-11.14-9.13-16.39-14.11h0Z"/>
  <path class="cls-8" d="M427.96,364.65c4.18,2.46,8.3,4.98,12.23,7.83,1.97,1.43,4.09,2.74,5.71,4.62,1.62,1.86,3.06,3.94,3.87,6.36l-.24.18c-6.14-4.03-10.6-9.46-16.27-14.03,0,0-5.48-4.72-5.48-4.72l.17-.25h0Z"/>
  <path class="cls-8" d="M464.41,405.83c3.71,7.59,6.88,15.29,11.11,22.57,2.04,3.59,4.23,7.21,7.24,10.14,3,2.95,6.54,5.26,10.01,7.75,14.39,9.98,19.99,27.44,28.92,41.67,0,0-.23.19-.23.19-3.03-3.02-5.63-6.45-8.01-9.98-6.48-9.54-11.35-20.13-19.47-28.41-6.69-6.81-15.11-11.96-20.57-20.02-2.43-3.58-4.26-7.51-5.76-11.51-1.5-4.01-2.68-8.1-3.52-12.29l.28-.1h0Z"/>
  <path class="cls-8" d="M530.15,499.05c3.33,2.84,6.14,6.12,8.48,9.78,2.02,3.84,4.1,7.61,7.24,10.68,2.22,2.49,5,4.82,5.95,8.29,1.48,6.19-3.77,11.46-8.83,13.86,0,0-.19-.23-.19-.23,5-6.18,8.8-11.25,3.35-18.11-1.64-2.81-3.06-5.74-5.13-8.25-1.34-1.68-2.99-3.14-4.41-4.76-2.76-3.35-5.02-7.04-6.7-11.08,0,0,.24-.18.24-.18h0Z"/>
  <path class="cls-8" d="M491.49,555.22c9.29-2.76,16.37-9.09,23.86-14.95,3.81-2.92,7.85-5.63,11.96-8.16,4.12-2.51,8.45-4.75,13.29-5.94,1.23-.26,2.57-.42,3.99-.08,4.7,1.08,5,7.32,3.31,10.76-1.97,4.83-6.24,8.18-10.48,10.76-5.76,3.4-13,6.79-10.86,14.72.5,2.24,1.47,4.44,2.43,6.64,0,0-.26.15-.26.15-5.3-6.94-6.89-14.31.93-20.15,5.45-4.23,12.53-6.82,15.65-13.25,5.15-13.24-12.01-6.82-17.47-2.79-7.85,5.52-13.96,13.22-22.5,17.95-4.2,2.45-8.92,4.36-13.79,4.62l-.05-.3h0Z"/>
  <path class="cls-8" d="M194.59,318.62c4.59-4.31,6.99-10.26,10.89-15.18,6.63-8.45,17.92-13.94,28.6-10.69,0,0-.03.3-.03.3-2.1.23-4.12.5-6.11.89-5.83,1.29-11.57,3.34-16.49,6.76-3.32,2.38-5.93,5.48-8.32,8.8-2.48,3.3-4.97,6.82-8.35,9.35l-.19-.23h0Z"/>
  <path class="cls-8" d="M178.66,333.6c-8.26,6-20.44,13.98-28.96,19.81-8.61,5.77-20.45,14.08-29.13,19.55,7.92-8.77,17.16-16.22,26.89-22.86,9.79-6.57,20.13-12.38,31.21-16.49h0Z"/>
  <path class="cls-8" d="M111.56,383.22c-6.25,15.86-18.33,28.48-28.63,41.73-17.39,22.06-29.42,48.05-48.46,68.88,15.96-23.29,27.57-49.3,45.51-71.24,10.75-13.02,23.12-24.63,31.58-39.37h0Z"/>
  <path class="cls-8" d="M28.85,501.24c-2.8,4.58-7.01,10.89-9.92,15.46-3.18,5.17-7.32,9.85-9.86,15.43,0,0-.2-.74-.2-.74,5.69,4.24,12.24,7.15,18.3,10.81,10.26,5.75,20.48,11.84,30.14,18.59,0,0-.17.36-.17.36-9.17-2.75-17.86-6.84-25.99-11.84-4.01-2.58-7.99-5.2-11.76-8.12-3.87-3.08-7.59-6.31-11.63-9.1,0,0,.21-.46.21-.46,2.56-5.63,4.38-11.76,7.96-16.89,1.75-2.59,3.66-5.07,5.77-7.38,2.09-2.32,4.34-4.5,6.86-6.38,0,0,.3.27.3.27h0Z"/>
  <path class="cls-8" d="M15.3,527.68c7.66-2.65,16.01-3.42,24.04-2.34,4.03.62,7.92,1.86,11.81,2.85,5.82,1.55,11.81,2.66,17.57,4.5,9.57,3.18,18.63,7.83,26.89,13.57,3.3,2.28,6.54,4.65,9.62,7.28l-.21.34c-7.51-2.99-14.58-6.67-21.66-10.2-5.26-2.73-10.46-5.53-15.84-8.02-5.31-2.65-10.78-5.16-16.65-6.22-3.9-.74-7.91-.69-11.83-.78-3.92-.11-7.82-.34-11.75-.43-3.93-.11-7.87-.04-11.93-.16l-.07-.39h0Z"/>
  <path class="cls-8" d="M226.46,297.44c-3.43-.27-6.62,1.94-7.68,5.04-.96,3.09.71,6.21,2.91,8.45,1.55,1.55,3.45,2.85,5.39,4.23,2.93,2.09,5.68,4.58,8.18,7.18,7.5,7.7,14.46,16.13,20.41,25.08,8.01,11.71,15.42,24.01,26.25,33.34,0,0-.17.25-.17.25-4.13-2.43-8.07-5.35-11.44-8.84-6.83-6.79-12.08-15.03-17.02-23.22-3.6-5.81-9.23-15.77-13.76-20.77-2.38-2.61-5.01-5.07-7.88-7.13-5.78-4.19-14.29-7.12-15.35-15.27-.82-5.4,5.12-10.43,10.22-8.64,0,0-.07.29-.07.29h0Z"/>
  <path class="cls-8" d="M281.49,394.14c1.73,5.33,3.37,10.69,4.92,16.08,1.8,5.38,3.17,10.79,2.87,16.57,0,0-.29.07-.29.07-2.87-5.02-4.1-10.46-4.92-16.08-1.06-5.5-2.01-11.03-2.87-16.57,0,0,.29-.07.29-.07h0Z"/>
  <path class="cls-8" d="M292.84,439c2.35,13.37,6.92,40.24,9.13,53.62,3,17.54,7.1,36.79,1.44,54.18,0,0-.29-.07-.29-.07,2.38-18.06-1.53-35.85-3.52-53.78-1.83-13.41-5.37-40.48-7.05-53.91,0,0,.3-.05.3-.05h0Z"/>
  <path class="cls-1" d="M305.16,557.62c-.3,3.49-.21,7.01.29,10.48"/>
  <path class="cls-8" d="M286.61,384.8c8.72,2.24,19.68.56,26.2,8.17,3.16,3.85,3.35,8.85,3.86,13.47.49,4.52,1.23,9.01,2.1,13.48,1.76,8.93,3.13,17.92,4.3,26.94,1.04,9.03,1.87,18.09,2.09,27.23,0,0-.3.04-.3.04-3.15-13.33-5.19-26.8-6.55-40.39-1.08-9.02-1.19-18.17-2.61-27.16-1.29-10.47-5.9-15.18-16.1-17.51-4.3-1.07-9.02-1.74-13.1-3.98l.11-.28h0Z"/>
  <path class="cls-8" d="M328.01,490.75c-1.11,12.82-1,25.74.46,38.51,1.68,12.78,4.25,25.23,6.52,37.95,0,0-.29.09-.29.09-5.45-11.86-7.95-24.85-8.63-37.83-.89-12.93-.41-25.97,1.63-38.76,0,0,.3.04.3.04h0Z"/>
  <path class="cls-8" d="M231.53,313.59c3.79,5.65,7.33,11.79,12.64,16.11,10.87,8.54,25.1,10.45,38.43,12.14,6.82.9,13.64,1.26,20.55,1.53,0,0,.02.3.02.3-6.83,1.39-13.89,1.67-20.87,1.16-13.79-1.42-28.2-4.94-39.1-13.98-5.23-4.79-8.45-11.07-11.92-17.09,0,0,.26-.16.26-.16h0Z"/>
  <path class="cls-8" d="M260.8,348.89c5,.59,10,1.02,15.02,1.3,5.1.03,10.01.24,14.95,1.89,0,0,0,.3,0,.3-5.03,1.6-10.16,1.24-15.21.19-5.01-.79-9.97-1.92-14.82-3.39,0,0,.06-.29.06-.29h0Z"/>
  <path class="cls-8" d="M308.54,342.47c1.07-.64,2.04-1.39,2.94-2.2.44-.39.65-1.02,1.21-1.17.7-.24,1.32-.29,2.19-.2,0,0,.22.2.22.2.16.92-.06,1.67-.55,2.35-.42.62-1.25.69-1.9.91-1.3.45-2.71.59-4.06.4,0,0-.06-.29-.06-.29h0Z"/>
  <path class="cls-8" d="M300.15,352.58c1.61-.46,3.23-.84,4.87-1.12.81-.14,1.62-.55,2.44-.33.93.21,1.72.58,2.46,1.32,0,0,0,.3,0,.3-.72.76-1.5,1.15-2.42,1.38-.81.24-1.63-.15-2.45-.27-1.65-.23-3.28-.56-4.9-.98,0,0,0-.3,0-.3h0Z"/>
  <path class="cls-8" d="M300.93,410.93c2.84-.95,6.73-1.02,8.74,1.65,1.29,1.88,1.18,4.1,1.2,6.26.14,3.64-3.37,6.04-6.48,7-3.28,1.06-7.37,1.87-10.15-1.01-1.01-1.2-1.1-2.88-.61-4.29,1.13-3.64,3.12-8.35,7.29-9.59h0ZM301.05,411.2c-4.22,1.77-3.55,6.37-4.54,10.2-.05.29-.13.61-.07.89.18.86.89,1.12,1.94,1.44,3.09.76,7.81-.31,9.93-2.69,1.07-1.36.93-3.54.96-5.24-.02-.94-.15-1.85-.55-2.63-1.37-2.61-5.12-3.07-7.68-1.96h0Z"/>
  <path class="cls-8" d="M314.67,471.05c.59,3.18-2.19,6.11-5.23,6.7-2.14.45-4.7.51-6.22-1.52-.75-1.09-.81-2.34-.78-3.38.1-2.06.47-4.2,1.64-6.15,6.26-9.65,16.68,1.33,19.13,8.45,0,0-.25.16-.25.16-2.76-2.86-5.55-5.42-8.64-7.52-2.85-2.15-5.96-2.91-8.23.23-.98,1.35-1.48,3.16-1.7,4.98-.27,1.8.29,3.09,2.15,3.47,3.47.88,8.03-1.32,7.83-5.37,0,0,.3-.04.3-.04h0Z"/>
  <path class="cls-8" d="M310.76,534.32c.38-1.02,1.24-1.72,2.25-2.11.87-.33,1.85-.44,2.77-.33,1.1.14,2.2.55,3,1.33,4.29,4.24-11.05,9.18-8.02,1.12Z"/>
  <path class="cls-7" d="M67.13,534.61c-1.18,4.92-3.1,12.01-4.45,16.97-1.36,5.74-3.24,11.32-6.63,16.26,0,0-.28-.1-.28-.1.32-6.03,2.3-11.46,4.63-16.9,0,0,3.15-8.18,3.15-8.18,1.1-2.71,2.16-5.43,3.3-8.13l.29.09h0Z"/>
  <path class="cls-7" d="M515.09,543.72c1.2,4.31,3.15,8.36,5.69,12.01,2.82,3.56,5.63,6.58,8.17,10.48,0,0-.18.24-.18.24-7.07-2.15-10.59-9.39-12.72-15.9-.64-2.23-1.1-4.49-1.26-6.78l.3-.05h0Z"/>
  <path class="cls-8" d="M8.51,531.87s12.25-6.14,26.35-5.75c16.44.46,32.12,7.92,32.12,7.92l-9.23,28.53-49.24-30.7Z"/>
  <path class="cls-5" d="M231.31,94.1c-3.72,2.09-5.1,7.4-9.17,8.5-2.49.67-2.99-1.07-5.15-2.08-2.97-1.39-5.58-.83-8.44.64-4.46,2.3-8.29,6.25-13.19,7.63-3.74,1.06-7.53.81-11.31.12-1.84-.34-5.32-2.03-5.82.78-.28,1.53.43,3.55.66,5.08.3,1.93.6,3.86.91,5.79,1.2,7.6,2.41,15.19,3.62,22.79,0,0-9.09,7.24-12.85,10.76-3.76,3.52,0,35.18,0,35.18l.55,4.63c-7.06,3.84-16.99,3.57-22.05,10.8-4.79,6.84-4.19,16.45-6.69,23.49,9.63,15.19,29,23.36,46.61,19.93,3.93-.77,7.86-2.06,11.85-1.7,2.34.21,4.6.99,6.8,1.81,10.24,3.83,20.07,8.78,29.24,14.72-1.08,11.85-1.4,23.77-.95,35.66.09,2.26-1.03,4.29-2.15,6.26-.35.61-.71,1.25-1.28,1.67-.49.37-1.09.55-1.69.71-1.16.31-2.33.55-3.52.72,4.96,6.24,9.46,17.14,17.03,22.93,7.1,5.43,15.74,8.39,24.41,10.19,15.41,3.21,30.03,3.63,46.37.61,1.91-9.76,4.02-19.48,6.33-29.15-12.58-1.88-15.67-14.18-16.75-24.85-1.28-12.57-1.11-26.1,5.72-36.73,8.53-13.27,23.62-16.72,35.23-26.07,12.47-10.05,12.28-26.5,10.15-41.09-1.18-8.08-3.95-15.82-6.71-23.5-3.62-10.09-7.25-20.18-10.87-30.27-3.64-10.13-7.43-20.5-12.51-29.97-5.04.15-15.84-5.8-19.62-9.13-1.74-1.53-3.23-3.37-5.21-4.58s-4.7-1.62-6.52-.18c-1.13.9-1.76,2.39-3.03,3.07-1.43.77-3.23.26-4.59-.61s-2.5-2.08-3.9-2.89c-.98-.56-1.98-1.13-3.05-1.51-1.44-.51-2.9-.51-4.35-.09s-2.75,1.05-4.15,1.49c-.6.19-1.31.34-1.79.78-.38.35.95,1.28,1.2,1.53.54.54,1.03,1.12,1.41,1.78.26.44.46,1,.24,1.46-.11.22-.3.4-.51.52-.67.4-1.45.34-2.19.26-.57-.06-1.16-.12-1.7.06-.22.07-.42.21-.42.46,0,.17.07.34.14.5.28.63,1.92,3.38.26,3.42-.4,0-.77-.19-1.13-.36-1.95-.92-4.64-.52-6.34-1.81-1.17-.89-.89-2.12-1.56-3.2-.43-.71-.8-.62-1.63-.34-1.36.47-2.73,1.45-3.82,2.38-1.21,1.02-2.22,2.3-2.93,3.71-.76,1.51-1.15,3.18-2.22,4.53-2.97,3.79-6.33-2.36-7.78-4.27-2.25-2.97-4.77-4.99-8.61-3.28-.19.08-.37.18-.55.28Z"/>
  <path class="cls-6" d="M196.01,182.98c1.39-2.68,3.36-5.07,5.45-6.78,3.91-3.2,8.72-5.31,13.64-6.39.04,0,.09-.02.13-.03,2.81-.6,5.72-.89,8.55-.39s5.57,1.85,7.37,4.08c4.92,6.09,1.84,16.13-2.71,21.52-2.61,3.08-6.11,5.39-9.95,6.62-4.83,1.55-10.87.95-15.68-.46-3.6-1.05-7.04-3.16-8.23-6.88s-.33-7.91,1.43-11.29Z"/>
  <path class="cls-6" d="M322.79,154.86c2.7-.71,5.56-.87,8.03-.5,4.63.68,9.06,2.65,12.86,5.34.03.02.07.05.1.07,2.16,1.55,4.17,3.36,5.59,5.6s2.21,4.96,1.8,7.58c-1.1,7.16-9.88,11.31-16.4,11.55-3.73.14-7.49-.82-10.72-2.68-4.07-2.34-7.42-6.83-9.46-11-1.52-3.12-2.22-6.78-.42-9.91s5.2-5.15,8.61-6.06Z"/>
  <path class="cls-8" d="M144.11,230.17c11.1,12.92,28.51,19.65,45.32,17.43,4.25-.66,8.56-2.05,12.94-1.35,4.33.77,8.32,2.46,12.43,3.92,8.42,3.11,16.42,7.32,24.02,12.12,0,0-.07.96-.07.96-.92,11.55-1.44,24.71-1.62,36.34-.3,2.3-1.47,4.14-2.58,5.82-.53.9-1.43,1.88-2.5,2.11-1.03.29-2.04.35-3.05.52,0,0-.06-.29-.06-.29,1.83-.62,3.9-.8,4.62-2.9,1.14-2.3,2.13-4.4,1.73-6.81,0,0-.12-1.52-.12-1.52-.8-11.17-.68-22.41.51-33.55,0,0,.7,1.44.7,1.44-7.08-4.75-14.58-8.85-22.27-12.61-3.84-1.74-7.75-3.77-11.89-4.61-4.24-.76-8.41.66-12.53,1.67-4.25,1.04-8.68,1.44-13.1,1.18-13.1-.95-26-8.44-32.71-19.69,0,0,.24-.17.24-.17h0Z"/>
  <path class="cls-8" d="M169.01,195.2s-.13.07-.38.19c-.25.12-.61.31-1.08.54-.95.46-2.34,1.11-4.07,1.85-1.73.73-3.78,1.57-5.94,2.53-1.06.5-2.19.99-3.27,1.62-1.07.64-2.15,1.36-3.05,2.32-.9.95-1.67,2.02-2.32,3.13-.65,1.11-1.16,2.26-1.6,3.38-.88,2.25-1.43,4.4-1.87,6.2-.44,1.81-.74,3.29-.97,4.31-.11.51-.2.9-.26,1.17-.06.27-.1.41-.11.41,0,0,0-.15.04-.42.04-.27.09-.67.15-1.19.12-1.04.3-2.54.51-4.39.24-1.86.52-4.08,1.18-6.52.34-1.22.75-2.49,1.35-3.76.59-1.27,1.36-2.53,2.34-3.71.98-1.18,2.13-2.15,3.3-2.98,1.18-.83,2.42-1.41,3.62-1.89,2.42-.88,4.65-1.24,6.49-1.58,1.85-.31,3.34-.56,4.36-.8.51-.11.9-.23,1.17-.3.27-.07.4-.12.41-.11Z"/>
  <path class="cls-8" d="M467.92,565.8c.61-.91,1.5-1.69,2.6-1.64.5.07,1.09.41,1.58.35.49-.04.9-.36,1.25-.78.65-.83,1.38-1.41,2.28-1.83.89-.29,1.86-.42,3.2-.13,0,0,.16.25.16.25-.32,1.34-1.07,2.17-1.94,2.75-.68.38-1.5.53-2.28.58-.77-.02-1.71-.34-2.39.08-.45.23-.8.83-1.25,1.15-.45.31-.99.31-1.52.26-.54-.08-1.09-.26-1.66-.75l-.04-.3h0Z"/>
  <path class="cls-8" d="M322.24,311.29c-2.31,11.59-4.5,23.19-6.43,34.84-1.72,11.72-3.56,23.33-6.85,34.76,0,0-.3-.04-.3-.04.04-11.92,2.08-23.62,4.79-35.17,2.5-11.57,5.28-23.07,8.49-34.46,0,0,.29.07.29.07h0Z"/>
  <path class="cls-8" d="M157.92,216.72c2.72-6.51,9.24-13.52,17.04-11.08,2.17.64,4.92,2.5,3.23,5.02-1.99,3.26-7.33,3.37-7.88,7.42-.18,2.02-.17,5.34,1.29,6.82.65.67,1.73,1.1,2.99,1.36,1.58.2,3.71.97,5.09,0,1.98-2.24,4.65-5.59,3.1-8.7,0,0,.23-.19.23-.19,2.37,2.29.96,6.15-.34,8.58-1.63,3.92-5,3.72-8.61,3.25-2.57-.28-5.36-1.86-6.14-4.49-.83-3.1-.88-6.72.75-9.56,1.3-2.03,3.87-2.96,5.7-3.95.84-.45,2.2-1.35,2.38-2.15,0-.09,0-.19-.12-.37-1.51-1.58-3.94-2.1-6.1-1.95-5.66.45-9.73,5.39-12.35,10.11,0,0-.27-.14-.27-.14h0Z"/>
  <path class="cls-8" d="M197.92,160.83c6.88-5.12,13.93-10,21.07-14.76,7.06-4.95,14.39-9.43,22.62-12.26,0,0,.15.26.15.26-6.57,5.66-13.93,9.95-21.5,14.04-6.47,3.68-15.65,9.15-22.17,12.96,0,0-.17-.25-.17-.25h0Z"/>
  <path class="cls-8" d="M296.9,127.8c6.9,1,13.76,2.3,20.59,3.73,6.92,1.23,13.69,2.99,19.88,6.51,0,0-.08.29-.08.29-10.6-.52-20.26-4.75-30.41-7.37,0,0-10.05-2.86-10.05-2.86l.06-.29h0Z"/>
  <path class="cls-8" d="M260.65,173.71c5.72-1.58,11.53-2.8,17.38-3.81,5.87-1.22,11.82-1.81,17.78-.48,0,0,.02.3.02.3-5.75,1.92-11.55,2.35-17.51,2.56-5.88.42-11.74,1.05-17.61,1.72,0,0-.06-.29-.06-.29h0Z"/>
  <path class="cls-8" d="M221.33,146.79c2.29,5.98,9,15.82,16.08,10.48,2.7-2.34,4.11-5.84,3.88-9.33-.11-3.47-1.66-6.94-4.02-10.2l.19-.23c5.77,2.68,9.17,10.84,5.57,16.71-3.2,6.06-11.54,6.82-17.13,3.81-3.66-2.35-5.47-7.04-4.87-11.21,0,0,.3-.04.3-.04h0Z"/>
  <path class="cls-8" d="M298.98,129c.49,5.14.28,10.63,4.56,14.25,1.41,1.09,3.14,1.72,4.9,2.02,3.5.68,5.93.32,7.12-3.19,1.14-3.1.89-6.64-.04-9.95,0,0,.26-.16.26-.16,4.43,4.08,4.83,13.76-1.79,15.92-4.16,1.02-7.6-2.06-11-3.85-1.59-.97-3.35-2.01-4.56-3.74-2.29-3.47-1.44-7.92.25-11.36,0,0,.3.05.3.05h0Z"/>
  <path class="cls-8" d="M207.01,143.35c1.49-1.24,2.99-2.45,4.52-3.62.76-.58,1.36-1.41,2.27-1.71,1-.37,1.98-.55,3.12-.39,0,0,.17.25.17.25-.31,1.13-.92,1.96-1.71,2.69-.71.7-1.75.86-2.65,1.23-1.81.75-3.68,1.35-5.59,1.81,0,0-.13-.27-.13-.27h0Z"/>
  <path class="cls-8" d="M222.04,134.05c1.94-1.69,4.09-3.14,6.38-4.31,1.15-.59,2.25-1.39,3.56-1.55,1.36-.19,2.71-.17,4.05.36,0,0,.06.29.06.29-.52.55-1.06.95-1.6,1.3-1.55,1.16-3.34,1.46-5.19,1.83-1.18.33-2.37.69-3.55,1.08-1.2.36-2.36.82-3.56,1.26l-.15-.26h0Z"/>
  <path class="cls-8" d="M298.8,119.22c5.49.18,11.5.56,16.78,2.06,1.81.72,3.51,1.59,4.98,2.94,0,0-.09.28-.09.28-3.85.41-7.44-.64-10.97-1.98-3.55-1.07-7.13-2.08-10.74-3,0,0,.04-.3.04-.3h0Z"/>
  <path class="cls-8" d="M315.64,310.64s-.38-.24-1.13-.72c-.73-.5-1.78-1.31-2.93-2.61-2.36-2.54-4.74-7.26-5.95-13.73-.64-3.23-1.03-6.86-1.33-10.84-.27-3.98-.41-8.34.02-13.01.4-4.66,1.42-9.65,3.58-14.57,1.09-2.45,2.54-4.82,4.24-7.09,1.73-2.26,3.81-4.31,6.08-6.23,4.58-3.82,10.05-6.8,15.58-9.96,2.76-1.59,5.55-3.24,8.23-5.12,2.69-1.89,5.26-3.96,7.33-6.55,2.09-2.58,3.66-5.62,4.73-8.89,1.07-3.28,1.63-6.78,1.83-10.36.2-3.59.04-7.26-.32-10.96-.39-3.72-.88-7.47-1.76-11.16-1.72-7.43-4.58-14.82-7.29-22.47-2.72-7.64-5.51-15.44-8.34-23.38-2.83-7.94-5.65-16.02-9.16-23.92-.88-1.98-1.79-3.94-2.77-5.88l-.74-1.45-.19-.36c-.05-.1-.02-.03-.03-.06,0,0,0,0,0,0l-.37-.02c-.15-.01-.3-.04-.45-.06l-.89-.14c-.56-.14-1.15-.25-1.69-.43-2.21-.66-4.29-1.56-6.32-2.55-2.03-1-4.01-2.1-5.93-3.32-.96-.62-1.91-1.25-2.82-1.96-.93-.7-1.81-1.51-2.59-2.3-1.57-1.56-3.09-3.11-4.88-3.72-.9-.32-1.87-.44-2.72-.27-.88.18-1.5.6-2.14,1.39-.65.75-1.34,1.9-2.72,2.51-1.36.57-2.79.35-3.93-.11-1.18-.46-2.14-1.23-2.98-1.91-.86-.71-1.6-1.33-2.5-1.81-.92-.53-1.83-1.02-2.74-1.32-.88-.3-1.82-.38-2.75-.24-.92.13-1.88.49-2.86.87-.49.19-1,.39-1.52.57-.51.19-1.13.35-1.5.47,0,0-.02,0-.01.01h.01c.19.19.36.3.65.58.39.4.78.83,1.12,1.32.32.48.7.98.82,1.84.06.42-.06.99-.37,1.37-.3.38-.64.59-.98.74-.7.3-1.4.3-1.97.25-.59-.05-1.05-.13-1.43-.09-.04,0-.04,0-.04.02l.16.33c.12.24.24.49.35.75.11.26.22.53.3.83.08.28.18.67.14,1.21-.07.48-.34.94-.78,1.14-.42.21-.98.25-1.44.1-.36-.11-.63-.25-.84-.35-.19-.09-.4-.17-.61-.24-.87-.27-1.88-.37-2.94-.56-1.05-.2-2.24-.48-3.23-1.39-.51-.47-.8-1.15-.94-1.69-.15-.55-.24-.99-.41-1.32-.07-.16-.22-.35-.2-.31-.03,0,.04-.02-.09,0-.15.03-.41.12-.62.19-.21.08-.42.17-.63.27-.83.4-1.63.95-2.39,1.55-.77.6-1.43,1.24-2.02,1.99-.58.74-1.06,1.54-1.44,2.4-.39.87-.72,1.83-1.21,2.78-.25.47-.53.94-.9,1.37l-.6.63c-.26.17-.5.37-.79.51-.32.1-.62.26-.96.24h-.5s-.47-.09-.47-.09c-.62-.15-1.11-.48-1.56-.8-1.7-1.37-2.72-3.13-3.81-4.67-1.1-1.5-2.37-2.94-3.94-3.56-1.55-.64-3.39-.19-4.84.72-1.47.93-2.56,2.43-3.69,3.9-1.14,1.45-2.33,3.08-4.19,3.96-.9.4-1.92.75-3.04.49-1.13-.29-1.81-1.06-2.49-1.53-1.33-.99-3.06-1.51-4.69-1.43-1.66.08-3.27.75-4.77,1.56-1.51.8-2.93,1.78-4.35,2.76-2.81,1.94-5.71,3.97-9.08,4.77-3.32.83-6.71.66-9.89.14-.78-.12-1.62-.28-2.37-.52-.76-.21-1.51-.43-2.23-.48-.72-.06-1.4.09-1.67.65-.3.55-.32,1.31-.24,2.04.17,1.45.64,2.96.81,4.46.23,1.48.45,2.95.67,4.39.89,5.79,1.74,11.3,2.54,16.52.2,1.3.4,2.59.59,3.86.1.63.19,1.26.29,1.89l.16,1.01c.07.14-.07.2-.17.28l-.21.17-.37.29c-1.93,1.56-3.81,3.07-5.62,4.53-1.8,1.48-3.52,2.91-5.15,4.33-.4.36-.8.72-1.19,1.07-.43.34-.66.75-.87,1.22-.38.94-.55,1.95-.68,2.93-.49,3.94-.38,7.6-.31,10.87.22,6.55.68,11.62.98,15.05.34,3.43.52,5.21.52,5.24,0,0-.24-1.8-.58-5.23-.33-3.43-.83-8.5-1.1-15.05-.1-3.27-.24-6.93.23-10.91.13-.99.29-2.01.68-3.01.11-.24.22-.49.37-.72.17-.23.35-.44.55-.61.39-.36.79-.72,1.19-1.08,1.62-1.44,3.33-2.89,5.12-4.38,1.8-1.48,3.66-3.01,5.58-4.58.2-.18.59-.44.56-.49l-.14-.86c-.1-.62-.2-1.25-.31-1.88-.21-1.26-.42-2.55-.63-3.85-.85-5.21-1.75-10.71-2.69-16.5-.23-1.45-.47-2.91-.71-4.39-.18-1.49-.65-2.89-.85-4.48-.08-.79-.12-1.64.31-2.48.22-.4.62-.77,1.07-.9.44-.14.89-.18,1.31-.14.84.06,1.62.29,2.39.49.76.23,1.49.36,2.29.47,3.12.48,6.39.6,9.54-.21,3.16-.78,5.93-2.74,8.73-4.71,1.41-.99,2.85-2,4.42-2.86,1.56-.85,3.29-1.61,5.21-1.73,1.92-.1,3.84.45,5.42,1.59.77.56,1.41,1.18,2.09,1.32.68.17,1.52-.08,2.25-.43,1.5-.72,2.61-2.18,3.72-3.64,1.12-1.46,2.24-3.1,3.98-4.24.87-.56,1.82-.95,2.85-1.15,1.03-.19,2.16-.14,3.16.27,2.03.81,3.39,2.42,4.59,3.99,1.14,1.6,2.17,3.25,3.57,4.34.7.53,1.41.73,1.99.46.62-.28,1.17-1.07,1.58-1.86.42-.82.74-1.75,1.15-2.7.41-.97.96-1.9,1.61-2.74.65-.84,1.44-1.61,2.25-2.26.82-.65,1.68-1.27,2.67-1.76.25-.12.5-.24.77-.33.27-.1.49-.18.83-.26.37-.1.99-.07,1.36.25.43.35.54.62.7.9.29.58.4,1.15.53,1.59.13.44.28.73.52.96.53.5,1.43.78,2.38.93.97.17,2.03.26,3.14.59.28.09.56.19.84.32.25.12.45.21.59.25.05.02.05,0,.05-.01,0,.03,0-.1-.07-.32-.06-.2-.14-.42-.24-.63-.09-.22-.2-.44-.31-.66l-.19-.38c-.11-.23-.23-.47-.27-.7-.11-.46.03-.96.37-1.27.32-.32.87-.45,1.35-.5.67-.06,1.25.05,1.71.08.47.04.86,0,1.13-.12.14-.06.26-.15.28-.19.02-.03.02-.02.01-.12,0-.2-.24-.62-.51-.99-.27-.38-.59-.74-.94-1.09-.09-.09-.34-.29-.55-.47-.39-.33-.78-.72-.93-1.13-.17-.39-.09-.88.19-1.19.31-.33.77-.59,1.27-.77.64-.22,1.05-.32,1.54-.5.48-.17.97-.37,1.47-.56,1-.39,2.05-.82,3.26-1,1.19-.18,2.45-.09,3.61.3,1.13.38,2.13.92,3.09,1.46,2.09,1.12,3.54,2.94,5.24,3.57.86.34,1.76.42,2.44.12.68-.27,1.24-1.06,1.97-1.98.37-.45.82-.94,1.4-1.32.57-.38,1.22-.64,1.87-.77,1.31-.26,2.61-.08,3.78.32,2.44.85,4.09,2.65,5.66,4.16.79.78,1.55,1.48,2.41,2.12.85.65,1.77,1.25,2.68,1.84,3.72,2.3,7.68,4.33,11.74,5.56.51.17,1.01.25,1.51.38l.74.11c.12.02.25.04.37.05l.45.02c.5.07,1.22-.15,1.34.54l.55,1.04.77,1.47c1.01,1.97,1.96,3.96,2.86,5.95,3.61,7.99,6.52,16.1,9.4,24.02,2.87,7.93,5.68,15.71,8.44,23.34,2.71,7.62,5.6,15.08,7.34,22.77.43,1.92.8,3.85,1.06,5.78.26,1.91.49,3.82.67,5.72.35,3.8.47,7.6.22,11.34-.25,3.74-.88,7.43-2.06,10.91-1.18,3.48-2.92,6.75-5.21,9.5-2.28,2.77-5.08,4.95-7.84,6.83-2.79,1.9-5.65,3.53-8.46,5.08-5.61,3.08-11.03,5.92-15.54,9.54-2.24,1.82-4.28,3.76-5.99,5.9-1.69,2.15-3.13,4.41-4.23,6.76-2.19,4.72-3.29,9.6-3.78,14.18-.52,4.6-.46,8.93-.27,12.9.22,3.97.54,7.6,1.12,10.81,1.08,6.45,3.37,11.17,5.67,13.73,1.12,1.3,2.16,2.13,2.88,2.64.73.49,1.1.73,1.11.74Z"/>
  <path class="cls-8" d="M329.49,107.1c3.18.51,7.16-1.68,5.94-5.4-.96-3.2-3.88-5.33-6.11-7.68-2.43-2.31-4.76-4.77-6.78-7.45-1.01-1.34-2.03-2.75-2.47-4.49-.36-1.29.06-2.88,1.18-3.72.98-.65,1.66-1.72,1.98-2.86.55-1.88-.37-2.54-2.3-2.69-.73-.05-1.77-.32-2.5-.46-6.27-1.26-23.13-3.47-29.78-4.42-3.32-.48-6.62-.88-9.96-1.44-1.18-.34-3.76,0-3.74-1.89.36-3.21,2.97-5.84,5.88-6.92.74-.34,1.5-.7,1.96-1.14.4-.45.41-.71-.06-1.2-1.79-1.47-4.32-2-6.59-2.58-4.83-1.18-9.79-1.2-14.74-.76-10.86.86-21.08,4.75-31.28,8.44,0,0,1.34-2.22,1.34-2.22,1.98-3.46,5.14-6.83,4.9-10.95-.13-.45-.11-.81-.57-.77-1.29.31-2.64,1.77-3.81,2.56-11.11,8.33-23.8,14.24-36.82,18.87-3.26,1.15-6.55,2.19-9.88,3.15-6.99,2.04-14.39,1.65-21.53,1.19,0,0-.35-.03-.35-.03-.07,0-.11,0-.27-.03-.15-.08.21.17-.6-.26-1.01-.59,1.47-3.69.63-2.32,1.04-.07,3.15.06,4.2.08,1.21.07,2.51.11,3.73.32.41.09.83.24,1.13.71.42.41,0,1.7-.12,1.58-.19.23-.45.36-.44.35-.81.36-2.17.34-3.06.43-1.59-.09-1.66,1.11-1.36,2.35.09.29.15.63.08.91-.13.63-.63,1.04-1.18,1.22-2.74.67-5.38.52-8.12.67,0,0-2.56.07-2.56.07h-.29s-.11.02-.11.02c.04-.02,0,.03.37-.11,1.34-3.84.04-1.56.5-2.19.28.33.66.8.78,1.31.07.35.06.84-.31,1.29-.26.35-.8.52-.85.51-.71.16-1.45-.31-1.97-.67-.61-.48-1.14-.74-1.53-1.55-.45-1.19.6-2.28,1.72-2.02.52.12.94.37,1.36.59,2.45,1.38,4.79,2.64,6.72,4.82,1.11,1.19,1.42,3.31-.19,4.38-1.89,1.2-4.04.74-6.05.69-2.44-.15-5.08-.3-7.45-.07-.38.04-.58.07-.9.18-.25.06-.38.27-.17,0,.09-.14.09-.46.07-.52.89.94,2.37,1.88,2.78,3.64.51,2.84-2.92,3.8-4.86,4.55-.55.21-1.1.44-1.59.68-.1.05-.05.06.05-.08,0,0-.86-2.36-.86-2.36.68.2.91.17,1.65.66.35.18.89,1.11.86,1.51.02.11,0,.03,0,0-.14-.19.12.11.45.3.37.19,1.01.72,1.23.98-.07-.08-.21-.14-.2-.13,1.92-.03,3.54,1.24,3.21,3.31-.7,2.69-2.94,5.11-5.84,5.02-1.64-.03-3.15-.96-4.12-2.25,0,0-.14-.14-.14-.14-.05-.04.08.06.09.06.14.13.69.23.82.2-.5,0-1.64.41-1.67.59.14.5,1,1.21,1.75,1.51,3.03,1.55,1.94,5.55,1.74,8.18-.09,1.01-.19,1.96.16,2.76.08.14.13.19.26.26,0,0,1.33.76,1.33.76l-.72,1.22c-8.99,14.68-11.85,32.15-10.04,49.17,1.61,17.16,6.48,33.99,7.74,51.23,0,0-.3.03-.3.03-4.75-35.89-20.17-67.08.18-101.85,0,0,.61,1.98.61,1.98-.61-.28-1.18-.81-1.5-1.38-1.48-2.78.04-6.1-.35-8.93-.09-.41-.12-.6-.4-.75-2.18-.81-4.62-3.66-2.84-6.01,1.04-1.26,2.39-1.6,3.85-1.78.31-.04.77.09.99.25.46.26.78.74,1.12,1.1.7.82,1.97,1.06,2.84.33.51-.39,1.31-1.42,1.43-2.04-.01-.07.02.18.1.23.06.07.18.11.16.1-.78-.05-1.97-.19-2.58-1-.86-.61-2.25-1.37-2.39-2.79-.01-.11-.03-.08.03.07.09.22.25.35.29.39.1.08.03,0-.15-.03l-.49-.12-2.13-.52s1.27-1.84,1.27-1.84c.83-1.1,1.89-1.25,2.98-1.76.98-.41,2.19-.76,2.94-1.32.04-.04.02-.03,0,.03-.03.05-.03.19-.02.21-.33-.77-1.51-1.42-2.1-2.26-.58-.67-.98-1.93-.42-2.87,1.8-3.28,10.63-1.44,13.91-1.57.44-.02,1.32-.01,1.63-.22.04-.02,0-.01.01,0-.03.02-.04.05-.07.1-.05.12-.07.24-.04.28-1.42-2.11-4.33-3.56-6.57-4.84-.06-.03-.15-.07-.12-.06.29.04.26.12.89-.09.29-.14.67-.41.81-1.1,0-.76-.04-.46-.08-.69-.13-.28-.11-.2-.14-.26-.06-.08,0,0,.04.04.2.17.38.34.6.48.14.1.3.2.38.24.01,0,.03.02,0,0l-.12-.03c-.17-.03-.36-.04-.53,0-.02,0-.55.14-.78.47-.26.38-.26.47-.31.71-.03.22.02.45.02.43,0,.07.06.2.09.27-.03-.05-.15-.21-.26-.34.45-.65-.9,1.61.48-2.25.5-.18.31-.1.61-.15,3.39-.17,7.11.05,10.41-.51-.42.2-.73.79-.61,1.31-.79-2.37.14-5.98,3.83-5.89.56-.05,1.55-.08,2.08-.17,0,0,.06-.01.06-.01-.23.09-.22.06-.54.38-.1-.13-.52,1.13-.11,1.51.16.29.48.48.62.52.05.01,0,0,0,0l-.23-.04c-2-.27-5.03-.34-6.77-.4-.86,1.37,1.55-1.72.58-2.3-.78-.42-.39-.16-.52-.24,6.96.53,14.21,1.05,21.03-.87,3.27-.91,6.54-1.93,9.76-3.03,12.83-4.46,25.42-10.2,36.38-18.29,1.64-1.09,2.63-2.49,4.8-2.91,2.88-.27,3.07,3.4,2.48,5.34-1,3.66-3.31,6.41-5.03,9.27,0,0-1.09-1.34-1.09-1.34,14.07-5.04,29.49-9.98,44.54-6.52,2.51.7,5.17,1.22,7.24,3.03.35.35.73.87.75,1.57-.17,2.58-3.62,2.87-5.22,4.06-1.14.9-2.26,2.24-2.79,3.62-.11.4-.33.87-.2,1.16,0,.01.08.07.23.11,12.94,2.31,30.44,4.28,43.34,6.95,1.3.34,2.6.1,3.75,1.15,1.28,1.53.15,3.71-.89,5.07-.51.6-1.38.96-1.73,1.7-1.57,3.23,3.28,7.86,5.22,10.32,2.25,2.47,4.74,4.73,7,7.2,1.69,1.81,3.34,4.31,2.66,6.92-.79,2.63-3.93,3.56-6.4,3.21,0,0,.04-.3.04-.3h0Z"/>
  <path class="cls-8" d="M315.65,131.79l-16.82-3.08c-.52,3.11-1.02,6.39.06,9.35,1.48,4.06,5.62,6.56,9.74,7.87,1.6.51,3.36.88,4.95.34,2.44-.83,3.72-3.57,3.98-6.13.29-2.89-.39-5.87-1.9-8.35ZM313.7,143.39c-.18.45-.66.73-1.14.8-.48.08-.97-.01-1.44-.1-1.2-.22-2.4-.44-3.61-.67-.96-.18-1.97-.38-2.67-1.06-.84-.81-1.76-3.92.2-3.9,1.01,0,2.32.84,3.25,1.21,1.17.46,2.35.93,3.52,1.39.52.21,1.05.42,1.45.81s.64,1,.43,1.52Z"/>
  <path class="cls-10" d="M141.72,221.91c-3.27-33.99-20.05-70.46.81-106.08-3.31-1.58,1.08-9.7-2.25-11.15-1.02-.45-2.28-1.37-2.51-2.54-.33-1.63,1.82-2.28,3.05-2.38.1,0,.46.38.86.85.89,1.04,2.29,1.49,3.63,1.18,1.21-.29,2.31-1.52,2.87-2.57.35-.64.7-1.44.18-2.1-.63-.79-1.79-.15-2.41-.89-.56-.67-1.79-.97-2.02-1.89-.04-.16-.04-.33-.11-.48-.11-.22-.39-.35-.61-.43-.23-.09-.49-.12-.72-.19.16-.23.42-.37.67-.5,1.17-.57,2.41-.96,3.6-1.48.69-.3,1.72-.75,1.88-1.58.09-.45-.13-.89-.39-1.26-.57-.81-1.42-1.35-2.04-2.11-1.12-1.38.62-2.03,1.8-2.16,2.15-.24,4.33-.13,6.48-.03,1.6.07,3.28.31,4.88.17.49-.04.99-.1,1.42-.33,3.21-1.77-5.1-6.29-6.38-6.97-2.8-1.49,2.74,2.81.62.28-.12-.14,11.44-.03,11.16-.92-.63-2.03-.04-4.14,2.09-4.25,10.42-.53-9.95-1.16-3.42-.74,7.25.46,13.6.83,20.65-1.19,9.18-2.63,18.17-5.96,26.78-10.09,7.56-3.63,14.81-7.84,21.37-13.08,3.93-3.14,4.55.71,3.42,3.9-1.04,2.96-3.02,5.47-4.63,8.12,8.57-3.06,17.24-6.15,26.28-7.21,4.58-.54,9.52-.79,14.22-.15,1.52.21,12.6,2.18,10.85,5.29-.72,1.28-3.83,1.98-5.01,3.01-1.28,1.12-2.59,2.79-2.95,4.47-.08.36-.1.77.13,1.05.19.23.51.31.81.37,1.56.32,3.14.53,4.72.76,8.99,1.34,18.01,2.52,26.99,3.92,3.88.6,7.78,1.2,11.62,2.04,1.42.31,3.26.14,3.78,1.62.42,1.22-.76,3.76-1.76,4.41-4,2.59.26,7.35,2.34,9.98,2.15,2.72,4.76,5.03,7.17,7.51,1.84,1.89,3.91,3.86,4.32,6.47.6,3.83-3.2,5.42-6.28,5-1.09-2.38-2.25-4.72-3.47-7.01-5.04.15-15.84-5.8-19.62-9.13-1.74-1.53-3.23-3.37-5.21-4.58s-4.7-1.62-6.52-.18c-1.13.9-1.76,2.39-3.03,3.07-1.43.77-3.23.26-4.59-.61s-2.5-2.08-3.9-2.89c-.98-.56-1.98-1.13-3.05-1.51-1.44-.51-2.9-.51-4.35-.09s-2.75,1.05-4.15,1.49c-.6.19-1.31.34-1.79.78-.38.35.95,1.28,1.2,1.53.54.54,1.03,1.12,1.41,1.78.26.44.46,1,.24,1.46-.11.22-.3.4-.51.52-.67.4-1.45.34-2.19.26-.57-.06-1.16-.12-1.7.06-.22.07-.42.21-.42.46,0,.17.07.34.14.5.28.63,1.92,3.38.26,3.42-.4,0-.77-.19-1.13-.36-1.95-.92-4.64-.52-6.34-1.81-1.17-.89-.89-2.12-1.56-3.2-.43-.71-.8-.62-1.63-.34-1.36.47-2.73,1.45-3.82,2.38-1.21,1.02-2.22,2.3-2.93,3.71-.76,1.51-1.15,3.18-2.22,4.53-2.97,3.79-6.33-2.36-7.78-4.27-2.25-2.97-4.77-4.99-8.61-3.28-4.14,1.85-5.45,7.62-9.71,8.77-2.49.67-2.99-1.07-5.15-2.08-2.97-1.39-5.58-.83-8.44.64-4.46,2.3-8.29,6.25-13.19,7.63-3.74,1.06-7.53.81-11.31.12-1.84-.34-5.32-2.03-5.82.78-.28,1.53.43,3.55.66,5.08.3,1.93.6,3.86.91,5.79,1.2,7.6,2.41,15.19,3.62,22.79,0,0-9.09,7.24-12.85,10.76-3.76,3.52-.05,40.27-.05,40.27-13.58,2.93-24.25,5.83-29.33,27.08Z"/>
  <path class="cls-8" d="M237.37,137.63l-16.18,9.18c.43,3.59,1.94,7.12,4.62,9.54,2.68,2.42,6.6,3.57,10.05,2.51,4.15-1.27,6.97-5.6,7.06-9.94.1-4.34-2.22-8.52-5.56-11.3ZM239.33,153.75c-.09.42-.42.8-.8,1.15-2.2,2.04-7.55,3.65-9.5.81-2.07-3.02,6.1-3.08,8.54-3.15.39-.01.8-.01,1.14.12.5.2.71.66.62,1.08Z"/>
  <path class="cls-9" d="M386.93,407.34c-7.02-4.31-15.91.69-19.1,7.52-4.02,6.9-8.88,31.93,2.22,33.92,5.42,1,9.24.26,11.54-5.4,3.36-6.99,6.76-14.07,6.49-21.86-.14-5.35-2.85-13.88-9.3-8.41-5.07,3.9-11.12,7.37-15.15,12.12-3.11,3.67-4.95,9.16-2.63,13.64,6.18,10.23,19.74,5.75,24.13-3.82,2.2-4.58,3.31-10.01,2.43-15.05-.67-3.69-3.2-7.23-6.93-8.12-3.85-.85-7.32,1.57-10.26,3.89-9.94,7.5-17.04,22.39-7.93,33.14,4.6,5.69,14.34,6.53,18.98.53,1.49-1.88,2.47-4.24,3.43-6.66,3.35-8.48,6.79-16.93,7.7-26.02,1.12-7.37-1.78-10.84-8.91-12.65-1.77-.46-3.92-.87-5.74-1.34-.8-.14-1.2-.36-1.63-.13-5.19,4.88-8.66,11.57-10.35,18.46-1.45,5.75-2.59,21.06,5.01,22.5,3.49.39,6.79-1.76,9.34-4.13,3.5-3.31,5.65-8.26,4.54-13.06-.92-4.71-5-8.63-9.96-8.26-5.02.11-8.87,4.55-7.32,9.56.67,2.36,2.36,4.2,4.77,4.84,1.79.59,3.48,1.37,5.24.64,4.88-2.02,3.17-7.86-1.15-9.36-1.71-.69-3.86.09-4.25,1.97-.33,2.08,2.08,2.92,3.83,2.99,0,0-.01.3-.01.3-1.31-.04-2.77-.27-3.78-1.34-1.05-1.12-.7-2.96.39-3.93,2.26-2.1,5.79-.53,7.5,1.54,3.43,3.74.75,9.44-4.22,9.53-2.26-.18-4.01-.78-6.01-1.66-1.94-1.02-3.32-2.96-3.98-5-3.19-10.16,9.68-15.98,16.99-9.67,9.73,8.7,3.31,23.66-7.79,27.47-14.35,4.09-14.53-16.52-12.26-25.65,1.25-5.33,3.55-10.4,6.75-14.85,1.54-2.01,2.95-4.01,5.01-5.57,1.09-.84,3.12-.59,4.1-.27,4.66,1.22,9.56,1.78,13.43,5.17,2.32,1.89,3.65,5.15,3.61,8.08-.04,5.6-1.23,10.83-2.79,15.96-1.59,5.11-3.59,10.03-5.61,14.89-1.02,2.43-2.1,5-3.92,7.24-5.64,7.08-17.17,6.15-22.49-.77-7.47-8.77-4.39-22.12,2.93-29.91,3.69-3.86,7.67-7.72,12.9-9.37,2.7-.76,5.74-.01,7.84,1.83,7.88,6.72,3.76,23.17-3.4,29.12-13.75,11.5-30.77-3.28-19.15-17.99,3.38-4.27,7.9-7.23,12.12-10.49,0,0,3.16-2.37,3.16-2.37,4.33-3.63,9.01-3.09,11.62,2.18,2.45,5.29,2.27,11.1.97,16.38-1.32,5.32-3.73,10.14-6.05,14.86-2.69,6.44-7.74,7.97-14.28,6.56-13.22-2.63-7.75-28.69-2.87-36.82,2.62-4.7,7.28-8.54,12.77-9.02,2.68-.28,5.49.31,7.67,1.9l-.17.25h0Z"/>
  <path class="cls-5" d="M405.93,446.79c1.79,6.51-.69,13.47-4.68,18.67-4.06,5.27-9.6,9.12-14.99,12.87,0,0-.34-1.07-.34-1.07,10.04-.4,20.01-1.9,29.72-4.39,0,0-.2,1.29-.2,1.29l-3.47,22.14-1.71-.98c1.98-1.68,3.37-4.04,4.59-6.51,2.42-5.04,5.01-11.63,11.01-13.42,3.12-.97,7.03-.4,9.17,2.3,0,0-2.14,1.69-2.14,1.69l-8.44-10.46-.45-.56c.22-1.61,1.23-3.15,2.38-3.95,1.66-1.32,3.77-1.79,5.39-2.79.59-.39,1.06-.77,1.32-1.42.35-1.18.24-1.85-1.21-1.73-11.37,3-22.16-6.01-20.43-17.8,0,0,2.27.53,2.27.53-3.16,9.08-7.62,21.75-10.96,30.61,0,0-.29-.09-.29-.09.7-2.62,1.44-5.23,2.18-7.83,1.41-5.32,5.27-17.96,6.83-23.41,0,0,2.27.53,2.27.53-.44,3.61.7,7.37,2.96,10.15,2.78,3.5,7.49,5.29,11.9,4.77,2.31-.39,5.38-1.34,7.03,1.11,1.66,2.54.21,5.86-2.23,7.21-2.12,1.44-5.41,1.61-6.34,4.08,0,0-.28-1.27-.28-1.27l8.23,10.62-2.14,1.69c-1.27-1.73-3.98-2.21-6.32-1.54-8.27,2.83-8.4,13.98-14.97,19.1,0,0-2.19,1.8-2.19,1.8.05-.36,4.08-23.45,4.31-24.85,0,0,1.06.98,1.06.98-9.46,2.21-19.14,3.4-28.83,3.57l-2.01.03s1.66-1.1,1.66-1.1c5.43-3.6,10.95-7.25,15.07-12.36,4.01-4.99,6.58-11.73,4.97-18.14,0,0,.29-.08.29-.08h0Z"/>
  <path class="cls-5" d="M230.75,378.37c2.4,9.35-6.1,16.61-13.05,21.19,0,0-.34-1.07-.34-1.07,6.82-.31,13.58-1.39,20.16-3.12,0-.08-2.36,15.59-2.45,16.06,0,0-1.71-.98-1.71-.98,2.74-2.42,3.51-6.26,5.59-9.38,2.14-3.9,8.16-6.28,11.49-2.37,0,0-2.12,1.67-2.12,1.67l-5.67-6.93-.45-.55c.17-1.29.91-2.54,1.82-3.16,1.13-.91,2.56-1.24,3.62-1.9.44-.24.83-.8.72-1.16.06.1.14-.01-.33.03-7.8,2.04-15.37-4.37-14.05-12.45,0,0,2.27.53,2.27.53-.99,2.57-11.3,31.91-6.56,14.95,1.36-5.25,2.83-10.46,4.33-15.67,0,0,2.27.53,2.27.53-.71,5.67,4.74,10.6,10.3,9.22,3.06-.99,5.81,1.2,4.62,4.45-.55,1.66-2.52,2.62-3.95,3.15-1.15.41-1.94,1.05-2,1.45l-.28-1.27,5.44,7.12-2.12,1.67c-.68-.97-2.29-1.3-3.75-.9-3.31.96-4.7,4.79-6.26,7.75-.88,1.7-1.95,3.49-3.6,4.84l-2.2,1.8c.27-1.48,2.77-15.61,3.11-17.48,0,0,1.06.98,1.06.98-6.98,1.62-14.14,2.33-21.29,2.31,0,0,1.67-1.09,1.67-1.09,6.99-4.32,15.41-10.93,13.42-20.15,0,0,.29-.08.29-.08h0Z"/>
  <path class="cls-9" d="M395.63,388.63c2.17,3.55.39,7.65-3.66,8.54,0,0-.28-.12-.28-.12,1.05-2.92,2.27-5.77,3.66-8.54,0,0,.28.12.28.12h0Z"/>
  <path class="cls-9" d="M401.35,411.03c3.42-3.55,8.88-3.69,12.51-.38,0,0,0,.3,0,.3-4.16.31-8.34.44-12.51.38,0,0,0-.3,0-.3h0Z"/>
  <path class="cls-9" d="M400.21,426.39c1.42-1.78,3.37-2.62,4.89-.88.4.5.76,1.15,1.01,2.3l-.07.29c-2.01-.29-3.98-.76-5.9-1.42,0,0,.07-.29.07-.29h0Z"/>
  <path class="cls-9" d="M394.94,442.08c2.67,1.09,4.05,3.33,3.41,6.01-.22.8-.6,1.64-1.46,2.59,0,0-.29.07-.29.07-.83-2.83-1.48-5.7-1.94-8.6,0,0,.29-.07.29-.07h0Z"/>
  <path class="cls-9" d="M378.81,461.29c2.68,2.6.72,7.05-2.57,7.82-1.06.25-2.25.19-3.35-.59l-.08-.29c2.99-1.1,5.22-3.82,5.71-6.97,0,0,.3.03.3.03h0Z"/>
  <path class="cls-9" d="M346.71,436.14c.9-.67,1.4-1.03,1.8-1.28.78-.46,1.06-.37,1.5.42.22.42.47.98.91,2.01l.02.3c-1.53.3-3.23-.16-4.4-1.2,0,0,.17-.25.17-.25h0Z"/>
  <path class="cls-9" d="M349.39,418.98c1.4-1.68,3.3-2.54,4.66-.74.35.51.65,1.17.81,2.31l-.08.29c-1.87-.35-3.7-.87-5.47-1.58,0,0,.08-.29.08-.29h0Z"/>
  <path class="cls-9" d="M352.9,406.49c1.48-1.73,3.46-2.51,4.92-.72.38.52.72,1.18.93,2.33l-.08.29c-2-.36-3.95-.89-5.85-1.61,0,0,.08-.29.08-.29h0Z"/>
  <path class="cls-9" d="M359.25,398.06c3.49-2.26,7.64-.59,8.63,3.44,0,0-.11.28-.11.28-2.95-.97-5.83-2.12-8.63-3.44,0,0,.11-.28.11-.28h0Z"/>
  <path class="cls-9" d="M379.62,383.49c3.39,2.3,3.37,6.68,0,8.99,0,0-.3,0-.3,0-.19-3-.19-6,0-8.99,0,0,.3,0,.3,0h0Z"/>
  <path class="cls-9" d="M356.5,459.52c-.07-2.25.83-4.15,3.1-3.78.62.13,1.31.4,2.22,1.12l.13.27c-1.69,1.05-3.46,1.94-5.32,2.66,0,0-.13-.27-.13-.27h0Z"/>
  <path class="cls-5" d="M335.8,381.39c-.24,2.9-.02,5.8.61,8.6.94,2.87,1.73,5.26,1.67,8.46,0,0-.26.14-.26.14-2.86-1.83-3.89-5.09-3.79-8.29-.16-3.06.33-6.17,1.47-8.99,0,0,.29.07.29.07h0Z"/>
  <path class="cls-5" d="M328.82,384.55c5.26,4.25,12.02,5.83,18.66,5.79,0,0-.71,2.11-.71,2.11-3.15-2.05-6.35-4.15-8.95-6.89-2.6-2.75-4.9-5.8-6.46-9.27,0,0,.24-.18.24-.18,1.48,1.19,2.85,2.42,4.23,3.64,5.02,4.33,10.06,9.35,15.45,13.23,0,0-3.88-.32-3.88-.32-6.85-.5-13.96-2.82-18.76-7.88,0,0,.2-.22.2-.22h0Z"/>
  <path class="cls-5" d="M353.7,476.31l3.49,22.66,1.67,11.33c.52,4.26,2.18,5.91,6.37,6.81,14.8,3.82,29.58,7.14,44.33,11.29,0,0-.05.3-.05.3-7.67-.46-15.27-1.64-22.78-3.17-7.53-1.51-14.86-3.83-22.17-6.11-4.85-1.21-7.24-3.78-7.63-8.84-.83-7.27-2.78-26.7-3.53-34.22,0,0,.3-.04.3-.04h0Z"/>
  <path class="cls-5" d="M363.56,510.08c5.97,1.28,11.95,2.49,17.98,3.45,6.12.76,12.06,1.68,17.86,4.05,0,0-.04.3-.04.3-6.25.86-12.36-.24-18.31-2-5.95-1.54-11.83-3.33-17.58-5.51,0,0,.08-.29.08-.29h0Z"/>
  <path class="cls-5" d="M412.31,521.31c2.35-.27,4.75-.23,7.1.13,1.18.18,2.45.15,3.5.77,1.12.62,2.09,1.41,2.75,2.59,0,0-.13.27-.13.27-.7.15-1.32.17-1.92.15-1.79.06-3.25-.7-4.81-1.46-1.05-.4-2.11-.78-3.2-1.14-1.08-.39-2.19-.68-3.32-1.01,0,0,.02-.3.02-.3h0Z"/>
  <path class="cls-6" d="M111.8,469.74c2.25-4.55,6.33-12.92,8.54-17.4.8-1.68,1.84-3.6,3.82-4.1,2.98-.68,5.86,1.75,6.7,4.5,1.52,5.72-2.94,10.66-3.52,16.12-.95,8.57,9.38,9.84,14.47,14.21,3.1,2.49,4.61,7.42,1.88,10.81-2.75,3.19-7.56,1.1-10.88,2.24-3.23,1.09-5.43,4.39-5.98,7.69-.58,3.5.35,7.07,1.7,10.32,1.42,3.35,4.11,7.62,1.76,11.3-1.89,2.79-5.48,3.6-8.52,2.71-3-.93-5.13-3.61-6.22-6.37-2.19-5.36-.82-11.24-1.22-16.77-.24-5.47-3.01-9.79-8.48-11.38-3.34-1.11-7.03-1.53-10.71-2.55-3.75-.97-7.32-3.03-10.06-5.8-5.52-5.6-8.28-14.03-6.13-21.74,2.64-9.58,11.92-17.01,21.95-16.87,6.48-.23,13.66,5.25,11.1,12.3-1.72,4.11-5.84,6.14-9.9,6.88-5.6.97-10.95-.53-15.69,2.46-2.51,1.64-4.63,5.06-2.84,7.86,3.41,4.48,9.46,2.51,14.73,3.26,1.93.23,3.96,1.02,5.43,2.3,1.48,1.2,2.73,2.51,4.31,2.84,1.56.38,3.27-.25,4.6-1.35,4.51-3.57,3.95-9.97,7.12-14.53,0,0,.25.16.25.16-1.91,3.16-2.14,6.93-3.46,10.47-1.3,3.53-4.65,7.29-8.79,6.59-2.01-.33-3.49-1.83-4.99-2.95-2.86-2.32-6.57-1.93-10.09-1.79-6.2.66-14.28-2.42-11.59-10.12,1.63-3.93,5.45-6.36,9.52-6.97,5.58-1.01,10.92.26,15.62-2.78,4.67-2.75,4.14-8.34-.63-10.55-2.86-1.34-6.53-1.18-9.77-.28-14.61,4.3-19.67,21.83-8.84,32.94,2.45,2.51,5.43,4.3,8.84,5.24,6.83,1.87,16.64,2.47,19.53,10.47,2.89,7.18-.53,15,2.1,21.91.9,2.32,2.53,4.46,4.89,5.24,2.17.71,5.1.05,6.35-1.85,1.83-3.03-.66-6.54-1.82-9.59-1.43-3.53-2.37-7.43-1.7-11.28.71-3.89,3.27-7.59,7.14-8.88,3.52-1.31,7.49.99,10.3-1.71,2.18-2.61.89-6.89-1.66-8.9-5.41-4.5-15.73-6.1-14.6-15.28.58-5.44,5.09-10.21,3.77-15.8-.8-3.27-5.5-5.94-7.91-2.67-.95,1.16-1.9,3.43-2.64,4.79-1.57,3.09-5.89,11.61-7.52,14.82,0,0-.27-.13-.27-.13h0Z"/>
  <path class="cls-9" d="M190.76,420.95c7.14,3.98,14.56,7.43,22.25,10.19,7.8,2.57,15.49,4.78,23.13,7.98,0,0-.06.29-.06.29-8.39,0-16.46-2.5-23.97-6.04-7.55-3.34-14.81-7.37-21.52-12.16,0,0,.16-.25.16-.25h0Z"/>
  <path class="cls-9" d="M208.5,452.6c4.8-2.62,11.86-6.22,16.81-8.74,5.59-3.07,11.29-5.74,17.67-6.82,0,0,.12.27.12.27-5.04,4.07-10.8,6.58-16.81,8.74,0,0-8.8,3.48-8.8,3.48-2.96,1.11-5.89,2.26-8.87,3.34,0,0-.12-.27-.12-.27h0Z"/>
  <path class="cls-9" d="M244.13,448.31c.55,1.32,1.02,2.66,1.38,4.02.18.67.63,1.33.47,2.03-.16.83-.5,1.5-1.18,2.16,0,0-.3.02-.3.02-.78-.54-1.22-1.16-1.51-1.95-.28-.67.06-1.38.13-2.08.14-1.41.39-2.81.71-4.19,0,0,.3-.02.3-.02h0Z"/>
  <path class="cls-9" d="M237.86,453.8c.52,1.75.71,3.61.57,5.44-.07.92.06,1.94-.46,2.75-.54.89-1.24,1.59-2.3,1.97,0,0-.27-.13-.27-.13-.19-.58-.26-1.07-.29-1.53-.21-1.43.35-2.35.97-3.56.61-1.59,1.11-3.23,1.47-4.92,0,0,.3-.01.3-.01h0Z"/>
  <path class="cls-9" d="M226.82,458.61c-3.08,3.63-6.48,7-10.16,10.03-1.84,1.52-3.6,3.21-5.74,4.31-2.12,1.12-4.35,2.06-6.83,2.47l-.14-.26c3.28-3.64,7.15-6.03,11.28-8.45,3.92-2.59,7.72-5.35,11.38-8.32,0,0,.21.21.21.21h0Z"/>
  <path class="cls-9" d="M178.17,449.24c3.99,1.68,7.95,3.44,11.86,5.3,4.1,1.66,7.89,3.67,10.85,7.14,0,0-.14.26-.14.26-4.51-.62-8.25-2.74-11.86-5.3-3.67-2.3-7.28-4.68-10.85-7.14,0,0,.14-.26.14-.26h0Z"/>
  <path class="cls-5" d="M221.49,377.34c1.19-.34,2.52-.27,3.7.17.6.21,1.39.31,1.72.94.33.59.52,1.34.13,2.26l-.25.16c-.98,0-1.5-.1-1.96-.26-.46-.13-.54-.7-.88-1.06-.33-.35-.69-.69-1.1-1.01-.4-.35-.87-.62-1.38-.91l.03-.3h0Z"/>
  <path class="cls-5" d="M219,383.05c.8-.39,1.62-.72,2.47-.94.41-.11.83-.49,1.22-.24.54.3.85.72,1.15,1.4.04.49-.45.96-.66,1.18-.21.21-.42.34-.63.42-.41.21-.8-.21-1.2-.36-.82-.3-1.61-.7-2.37-1.16,0,0,.01-.3.01-.3h0Z"/>
  <path class="cls-5" d="M218.54,386.7c.99-.52,2.01-.96,3.06-1.3.51-.17,1.01-.61,1.55-.43.68.19,1.18.56,1.68,1.22.13.47-.47,1.04-.69,1.26-.24.24-.5.4-.75.51-.51.27-1.06-.09-1.6-.17-1.09-.17-2.17-.44-3.23-.79,0,0-.02-.3-.02-.3h0Z"/>
  <path class="cls-5" d="M210.75,389.18c1.73,1.01,3.68,1.43,5.62,1.37.94-.03,1.78-.47,2.67-.42.91.01,1.82.04,3.11.23l.15.26c-.49,1.26-1.54,2.02-2.67,2.45-1.15.46-2.4.12-3.52-.13-2.21-.47-4.29-1.72-5.58-3.54,0,0,.2-.22.2-.22h0Z"/>
  <path class="cls-5" d="M219.14,411.29c1.43-1.53,2.92-2.99,4.49-4.38.78-.69,1.4-1.6,2.37-2,1.04-.47,2.09-.74,3.31-.65,0,0,.17.25.17.25-.69,2.34-2.32,3.56-4.49,4.38-1.85.97-3.75,1.85-5.68,2.65,0,0-.17-.25-.17-.25h0Z"/>
  <path class="cls-5" d="M225.89,412.96c1.08-1.63,1.33-3.4,2.13-5.2.41-.94.78-2.1,1.84-2.7.98-.61,2.46-.9,3.51-.08v.3c-.84.87-1.13,1.47-1.58,2.07-.38.61-1.16.96-1.71,1.64-1.15,1.42-2.31,3.26-3.99,4.2,0,0-.2-.22-.2-.22h0Z"/>
  <path class="cls-5" d="M241.05,404.73c1.53.69,2.91,1.75,3.99,3.06.55.65,1.3,1.27,1.42,2.17.16.96.04,1.9-.55,2.78,0,0-.29.06-.29.06-.51-.29-.86-.57-1.16-.86-.32-.28-.57-.57-.78-.86-.47-.56-.42-1.35-.69-2.05-.56-1.42-1.26-2.78-2.13-4.07,0,0,.19-.23.19-.23h0Z"/>
  <path class="cls-5" d="M248.03,403.39c1.24-.36,2.65-.21,3.84.35.61.28,1.42.48,1.7,1.18.29.66.4,1.47-.13,2.34l-.28.12c-.98-.17-1.48-.34-1.91-.55-.44-.18-.47-.75-.78-1.14-.31-.37-.66-.74-1.07-1.08-.4-.37-.88-.65-1.41-.93l.02-.3h0Z"/>
  <path class="cls-5" d="M248.3,401.09c1.48-.61,3.04-1.02,4.63-1.21.79-.09,1.63-.43,2.4-.12.87.32,1.58.82,2.12,1.68,0,0-.06.29-.06.29-.45.35-.86.55-1.26.7-.4.16-.77.25-1.15.3-.74.14-1.43-.31-2.16-.46-1.34-.28-3.16-.66-4.51-.89,0,0-.03-.3-.03-.3h0Z"/>
  <path class="cls-5" d="M251.09,392.53c1.01-.39,2.37-.94,3.38-1.34.54-.22,1.01-.72,1.6-.63.29.02.6.08.93.22.33.12.68.3,1.1.62l.09.29c-.28.85-.74,1.4-1.42,1.8-.57.37-1.28.1-1.91.08-.64-.02-1.28-.1-1.91-.22-.63-.15-1.25-.28-1.85-.51v-.3h0Z"/>
  <path class="cls-5" d="M253.14,389.14c1.29-.89,2.37-1.98,3.27-3.2.44-.6.56-1.37,1.12-1.8.55-.47,1.16-.91,2.21-1.34l.28.11c.48,1.06.34,2.05,0,2.9-.33.89-1.24,1.35-1.95,1.86-1.41,1.02-3.12,1.66-4.84,1.76,0,0-.1-.28-.1-.28h0Z"/>
  <path class="cls-5" d="M249.25,372.69c-1,2.93-3.32,5.35-6.25,6.55,0,0-3.7,1.51-3.7,1.51l2.42-3.56c.98-2.02,1.53-4.03,1.81-6.32,0,0,.27-.13.27-.13.66.41,1.14,1.05,1.45,1.76,1.06,2.22.2,4.91-1.69,6.4,0,0-1.28-2.05-1.28-2.05,1.23-.22,2.47-.77,3.63-1.48,1.17-.72,2.21-1.67,3.08-2.81l.27.14h0Z"/>
  <path class="cls-5" d="M245.87,379.71c1.48-.05,2.83-.62,3.95-1.48.54-.42.77-1.08,1.33-1.34.56-.31,1.16-.57,2.21-.96l.28.11c.47,1.06.19,2.11-.33,2.92-.52.86-1.56,1.12-2.41,1.41-1.66.58-3.61.5-5.11-.37,0,0,.08-.29.08-.29h0Z"/>
  <path class="cls-5" d="M250.94,383.34c1.67-.56,3.99-1.41,5.66-2.02,1.13-.51,2.35-1.18,3.57-1.08.29-.08.71-.16,1-.7l.28-.1c1.35,1.04.03,3.21-1.17,3.68-.59.31-1.06.41-1.59.45-1.56.06-3.09.28-4.65.25-1.03-.03-2.06-.05-3.08-.18l-.03-.3h0Z"/>
</svg>